PathFileType	3	(X/Y/Z)	D:\Jess\PFP\Labelled\PA17\20250829\SRRun01.trc
DataRate	CameraRate	NumFrames	NumMarkers	Units	OrigDataRate	OrigDataStartFrame	OrigNumFrames
250.0	250.0	5	33	mm	250.0	37188	2501
Frame#	Time	C7			T10			CLAV			LSHO			RSHO			LASIS			RASIS			LPSIS			RPSIS			LILCR			RILCR			LGTR			LTHI			LLTHI			LLEP			LPSH			LLSH			LDSH			LLMAL			LTOE			L5TH			LHEE			RGTR			RTHI			RLTHI			RLEP			RPSH			RLSH			RDSH			RLMAL			RTOE			R5TH			RHEE			
		X1	Y1	Z1	X2	Y2	Z2	X3	Y3	Z3	X4	Y4	Z4	X5	Y5	Z5	X6	Y6	Z6	X7	Y7	Z7	X8	Y8	Z8	X9	Y9	Z9	X10	Y10	Z10	X11	Y11	Z11	X12	Y12	Z12	X13	Y13	Z13	X14	Y14	Z14	X15	Y15	Z15	X16	Y16	Z16	X17	Y17	Z17	X18	Y18	Z18	X19	Y19	Z19	X20	Y20	Z20	X21	Y21	Z21	X22	Y22	Z22	X23	Y23	Z23	X24	Y24	Z24	X25	Y25	Z25	X26	Y26	Z26	X27	Y27	Z27	X28	Y28	Z28	X29	Y29	Z29	X30	Y30	Z30	X31	Y31	Z31	X32	Y32	Z32	X33	Y33	Z33	

2189	148.748	805.4240474029422	1516.635600136586	-1079.817286081052	775.2741593134441	1288.82186419682	-1015.632429090463	844.1506713529847	1424.461494994213	-1214.047499884649	665.1573386999764	1507.219773384718	-1178.224980196777	982.9739151208754	1472.817355549642	-1108.8589906979	708.1582638370144	975.9483690170994	-1218.116423690152	935.8833085985931	1014.359018689674	-1186.99391983637	773.0890710510977	1081.887974729471	-1013.504135136001	809.2743307201636	1083.473416111988	-1008.095645017509	650.9155554706699	1072.328347981419	-1175.696625877212	968.3001272818144	1106.095152243137	-1109.981097949495	626.7054576322156	926.2546382135934	-1132.141683162884	727.0711514749073	718.4986338093279	-1148.999170487261	654.8263768697537	679.1883203537647	-992.519828007328	678.8191800395595	528.3052783661088	-915.971904874669	734.5632814168847	444.6261401018022	-930.2539223716346	679.1763570968388	376.7011149576759	-782.9340833167417	728.2225426332169	275.4802254523586	-794.0128003037083	702.3971659949943	209.6518022854082	-691.6087467295939	702.5146012027927	70.35135516239214	-745.1061481354145	677.6889099447806	75.62626818181568	-704.543693441493	749.3567243529025	235.6598817250057	-632.4877614242178	1018.246950269644	968.9994123009883	-1114.841244666523	913.0751395988677	798.9873015520253	-1260.830542569019	977.2675482204397	682.1694427661137	-1159.677760159221	944.5038834109171	513.2865411942752	-1209.717060965383	891.4192138403394	456.7230653660714	-1273.503709103785	947.4398374101803	320.2871002098853	-1210.561993101055	905.1251560674615	252.6012243762414	-1272.485249328364	920.3103401200425	123.3437421668456	-1247.494035915121	926.0583977909773	117.8166417641485	-1394.38559262339	956.8495515383969	81.01016762600699	-1366.789022122404	874.8648978954847	65.38883874158043	-1199.818504301529	
2190	148.752	806.1977737995315	1516.222519191221	-1080.170027345737	775.9785952107738	1288.508801746648	-1015.862082437776	845.0026001745194	1424.011348973167	-1214.190680510488	666.0897627748407	1506.842318280827	-1178.661443568146	983.7410302234812	1472.254207185136	-1109.097992524298	708.6577075736955	976.698639596852	-1218.555760833263	935.9639963063292	1013.94741735249	-1187.375443552477	773.6518836176945	1082.211185693243	-1013.708549868473	809.8468778284735	1083.676385446887	-1008.298770210234	651.6248650210845	1073.407910026021	-1176.02942626601	968.7446974962604	1105.765853683747	-1110.659334399863	626.7692469537253	927.30474375978	-1132.721703337621	725.8116079320988	718.3552481206198	-1150.653318135006	655.0838266291127	679.0001136783302	-993.7346747285261	679.2636709519815	527.6281937624342	-917.8526124497746	734.44503885811	443.2755707812555	-931.0498256243532	679.0788738575874	378.4819393466015	-782.2618651710845	727.3231959877662	276.7687647512328	-791.5760282913196	701.2621368227203	213.4440409148963	-687.9424504799214	700.8256961904332	72.27390915814662	-736.4689981120384	676.4920658813754	79.01453652838619	-695.929147520235	748.8533691245424	241.4887526215624	-630.5702836385369	1018.718075422399	968.8866762736266	-1115.786574237538	912.7435092714713	797.0099134111068	-1259.70483548097	978.5355053589103	681.625992131084	-1159.595298983033	945.0236900623705	512.6292909113545	-1210.456462565458	891.33565028047	456.9070515053399	-1274.480763659705	948.2265333275476	319.4664992811326	-1214.315335798436	905.1010010677966	252.6927007708029	-1276.6156139924	920.7603471198252	122.9449434597741	-1253.778169854641	924.4520717709369	119.4216873138062	-1400.854538845415	955.5714639657283	82.05759477615399	-1374.2542113776	875.9810258185744	64.36418206181982	-1206.259735052895	
2191	148.756	807.0056954589425	1515.669252806163	-1080.525060936043	776.7792350041942	1288.043925542647	-1016.033980149174	845.8289939583808	1423.397937150767	-1214.347030193096	667.001945427864	1506.288399829535	-1179.054651012216	984.5306066309084	1471.560257388626	-1109.379555715104	709.0674045632992	977.3958893312414	-1218.929360626913	936.0388660068156	1013.277617577351	-1187.750704702906	774.2545969516553	1082.347595749749	-1013.874272855157	810.4507607297689	1083.676465109739	-1008.468422568543	652.2474173552004	1074.397580271113	-1176.182316979421	969.2369598641259	1105.188010939814	-1111.369011645253	626.8110886053022	928.2653477227406	-1133.228507871216	724.5886893864457	718.1186083746162	-1152.473476554352	655.3897104207084	678.4814503170468	-995.1926134170484	679.7381231881194	526.6137973275791	-920.1255412176446	734.3112428037281	441.5970662245929	-932.1300886672782	678.9956592843261	380.1525386575092	-781.8597361430902	726.3871965965822	277.9573360129851	-789.2944493806883	700.1288123797169	217.3044014312369	-684.3895985916555	698.9421548620642	74.44071071443159	-727.8757658098428	675.1373628353607	82.68695012720251	-687.3896775093737	748.4204923466247	247.2660211180317	-628.8648882765559	1019.152788518456	968.4769696581955	-1116.649538616814	912.3696113690315	794.7852968406545	-1258.539490640811	979.7970157557157	680.8763654710082	-1159.812047562558	945.5771208296585	511.8272525457272	-1211.35373863313	891.2850668523236	456.8348449111018	-1275.386897312821	949.0512947990071	318.5690548088892	-1217.69802105667	905.1170022595518	252.5673102374427	-1280.170297260717	921.2571675529643	122.4651101141524	-1259.160614955998	922.8950585294249	120.4401817012448	-1406.319738611326	954.3310660270415	82.62904072207201	-1380.588542040397	877.1212050384922	63.49991516813615	-1211.617097917075	
2192	148.76	807.8467078432757	1514.972084408946	-1080.8754126247	777.67279512116	1287.425981873181	-1016.146949116625	846.6272743399371	1422.618472573124	-1214.512043215487	667.8948306745964	1505.557982362133	-1179.399072089719	985.3393464717254	1470.733836021571	-1109.700998949679	709.3923817896392	978.0253030846936	-1219.242394891855	936.1088856505653	1012.361530199405	-1188.1207224809	774.9013788221404	1082.285631080902	-1014.011469596026	811.0886896655005	1083.462297315681	-1008.612418651275	652.7901387174868	1075.277520036627	-1176.157520947919	969.7732416867517	1104.368707007438	-1112.100148867105	626.841049995018	929.1168769985352	-1133.663079942399	723.4225985507384	717.783057518462	-1154.445459225767	655.7386166452319	677.626287510073	-996.8846239260866	680.2247020330893	525.2817806881427	-922.765710336561	734.1393677329598	439.614873762843	-933.4798185485379	678.9267737074251	381.7305734656514	-781.7203339838247	725.4084107781165	279.0655581273764	-787.177610647957	699.0056637003019	221.2374376717136	-680.9706250220095	696.8635756347458	76.86601593351391	-719.3856349621142	673.6213194264241	86.64863243482174	-678.9852275082834	748.0637959542753	252.9768590188052	-627.3695809954238	1019.541400023286	967.7609031189439	-1117.422285818434	911.9528935244322	792.3485205866855	-1257.379307465791	981.0135534019433	679.9160426767978	-1160.331715713016	946.1482273889377	510.8743716454744	-1212.391851693041	891.2585854479961	456.4913898206848	-1276.214929326976	949.9023176581682	317.5787628409644	-1220.682423083151	905.1741216106664	252.1976051390909	-1283.132554974842	921.8004509740182	121.8730325137016	-1263.612350522166	921.4205650102145	120.8286794005303	-1410.763526528699	953.1625265419885	82.68851929334046	-1385.75725849065	878.2769855184848	62.77595909898378	-1215.857279667338	
2193	148.764	808.7193738310895	1514.127620925972	-1081.213743275687	778.6554578604345	1286.653371895018	-1016.200848735047	847.3951682545667	1421.670579975456	-1214.681593910062	668.7687505636804	1504.651320189042	-1179.688310823469	986.1646145632139	1469.773011442365	-1110.059579407142	709.6389005357217	978.5709339876051	-1219.500370838555	936.1757805790552	1011.212163844505	-1188.486064354898	775.5960846300902	1082.013988502554	-1014.128897691453	811.763496965818	1083.023144883525	-1008.73722969982	653.2613154381531	1076.027962837836	-1175.959152613071	970.3494616734677	1103.314495281363	-1112.842239050438	626.8691464765411	929.8389844496924	-1134.026970372819	722.3301095839403	717.3426898284278	-1156.553319693746	656.1230333476773	676.4318165094037	-998.7991729037925	680.7047900504825	523.6547321244838	-925.7454475420969	733.9074194545348	437.3561753092216	-935.0841401031904	678.8726843812464	383.2330445632089	-781.83694063317	724.3827299012039	280.1127652803236	-785.2364927886366	697.9016703341114	225.2452940682984	-677.7085230833382	694.5939841017328	79.56083093790743	-711.0639096255329	671.9436160197707	90.89990626914593	-670.7819652205735	747.7872816482175	258.6054072677134	-626.0819683626102	1019.875449166282	966.7301890072991	-1118.098357829029	911.4944412248792	789.7379020516463	-1256.270881178422	982.1495936042666	678.7431188355656	-1161.14944724971	946.7211704926675	509.7663183860167	-1213.549729379301	891.2467011411957	455.8655824264583	-1276.958222211942	950.7662123761014	316.483636367399	-1223.244643861791	905.270805633008	251.5631573761175	-1285.490128034105	922.3864809427943	121.1448228454577	-1267.111953646066	920.0590948360654	120.5610464758848	-1414.175600646766	952.0978926898395	82.21664940532524	-1389.735926001382	879.4373982722948	62.17543926742279	-1218.958952501584	
